<?xml version="1.0" encoding="UTF-8" standalone="no"?>
<!DOCTYPE svg PUBLIC "-//W3C//DTD SVG 1.1//EN" "http://www.w3.org/Graphics/SVG/1.1/DTD/svg11.dtd">
<svg version="1.1" xmlns="http://www.w3.org/2000/svg" xmlns:xlink="http://www.w3.org/1999/xlink" preserveAspectRatio="xMidYMid meet" viewBox="0 0 640 640" width="640" height="640"><defs><path d="M69.51 70.14C31.18 70.14 0 101.32 0 139.65C0 175.72 0 464.28 0 500.35C0 538.68 31.18 569.86 69.51 569.86C119.61 569.86 520.39 569.86 570.49 569.86C608.82 569.86 640 538.68 640 500.35C640 464.28 640 175.72 640 139.65C640 101.32 608.82 70.14 570.49 70.14C470.29 70.14 119.61 70.14 69.51 70.14ZM429.59 310.61C429.59 268.15 429.59 244.56 429.59 239.84C429.59 233.97 434.36 229.2 440.23 229.2C449.63 229.2 496.59 229.2 581.14 229.2L581.14 310.61L429.59 310.61ZM581.14 329.39L581.14 410.8L429.59 410.8L429.59 329.39L581.14 329.39ZM621.21 279.3L621.21 360.7L599.92 360.7L599.92 279.3L621.21 279.3ZM599.92 179.1L621.21 179.1L621.21 260.51L599.92 260.51L599.92 179.1ZM440.23 210.41C424.01 210.41 410.8 223.61 410.8 239.84C410.8 257.92 410.8 348.31 410.8 511L229.2 511L229.2 129C433.97 129 547.74 129 570.49 129C576.36 129 581.14 133.78 581.14 139.65C581.14 144.37 581.14 167.95 581.14 210.41C496.59 210.41 449.63 210.41 440.23 210.41ZM58.86 310.61L58.86 229.2L210.41 229.2L210.41 310.61L58.86 310.61ZM18.79 360.7L18.79 279.3L40.08 279.3L40.08 360.7L18.79 360.7ZM210.41 329.39L210.41 410.8L58.86 410.8L58.86 329.39L210.41 329.39ZM329.39 88.92L500.98 88.92L500.98 110.22L329.39 110.22L329.39 88.92ZM139.02 110.22L139.02 88.92L310.61 88.92L310.61 110.22L139.02 110.22ZM210.41 210.41L58.86 210.41C58.86 167.95 58.86 144.37 58.86 139.65C58.86 133.78 63.64 129 69.51 129C78.9 129 125.87 129 210.41 129L210.41 210.41ZM18.79 260.51L18.79 179.1L40.08 179.1L40.08 260.51L18.79 260.51ZM40.08 379.49L40.08 460.9L18.79 460.9L18.79 379.49L40.08 379.49ZM210.41 429.59L210.41 511C125.87 511 78.9 511 69.51 511C63.64 511 58.86 506.22 58.86 500.35C58.86 495.63 58.86 472.05 58.86 429.59L210.41 429.59ZM310.61 551.08L139.02 551.08L139.02 529.78L310.61 529.78L310.61 551.08ZM500.98 529.78L500.98 551.08L329.39 551.08L329.39 529.78L500.98 529.78ZM429.59 429.59L581.14 429.59C581.14 472.05 581.14 495.63 581.14 500.35C581.14 506.22 576.36 511 570.49 511C561.1 511 514.13 511 429.59 511L429.59 429.59ZM621.21 379.49L621.21 460.9L599.92 460.9L599.92 379.49L621.21 379.49ZM621.21 160.31L599.92 160.31C599.92 147.91 599.92 141.03 599.92 139.65C599.92 123.42 586.72 110.22 570.49 110.22C567.11 110.22 550.2 110.22 519.77 110.22L519.77 88.92C550.2 88.92 567.11 88.92 570.49 88.92C598.46 88.92 621.21 111.68 621.21 139.65C621.21 142.4 621.21 149.29 621.21 160.31ZM120.23 88.92L120.23 110.22C89.8 110.22 72.89 110.22 69.51 110.22C53.28 110.22 40.08 123.42 40.08 139.65C40.08 141.03 40.08 147.91 40.08 160.31L18.79 160.31C18.79 147.91 18.79 141.03 18.79 139.65C18.79 111.68 41.54 88.92 69.51 88.92C76.27 88.92 93.18 88.92 120.23 88.92ZM18.79 479.69L40.08 479.69C40.08 492.09 40.08 498.97 40.08 500.35C40.08 516.58 53.28 529.78 69.51 529.78C72.89 529.78 89.8 529.78 120.23 529.78L120.23 551.08C89.8 551.08 72.89 551.08 69.51 551.08C41.54 551.08 18.79 528.32 18.79 500.35C18.79 497.6 18.79 490.71 18.79 479.69ZM519.77 551.08L519.77 529.78C550.2 529.78 567.11 529.78 570.49 529.78C586.72 529.78 599.92 516.58 599.92 500.35C599.92 498.97 599.92 492.09 599.92 479.69L621.21 479.69C621.21 492.09 621.21 498.97 621.21 500.35C621.21 528.32 598.46 551.08 570.49 551.08C563.73 551.08 546.82 551.08 519.77 551.08Z" id="b2teVA1YY"></path></defs><g><g><g><use xlink:href="#b2teVA1YY" opacity="1" fill="#c9b479" fill-opacity="1"></use><g><use xlink:href="#b2teVA1YY" opacity="1" fill-opacity="0" stroke="#000000" stroke-width="1" stroke-opacity="0"></use></g></g></g></g></svg>